<?xml version="1.0" encoding="UTF-8"?>
<svg id="Camada_1" data-name="Camada 1" xmlns="http://www.w3.org/2000/svg" viewBox="0 0 192 192">
  <defs>
    <style>
      .cls-1 {
        fill: #fff;
      }

      .cls-2, .cls-3 {
        fill: #4a6fa5;
      }

      .cls-3, .cls-4 {
        stroke: #fff;
        stroke-width: 2px;
      }

      .cls-4 {
        fill: none;
      }
    </style>
  </defs>
  <rect class="cls-2" width="192" height="192"/>
  <g>
    <circle class="cls-3" cx="98.91" cy="124.74" r="12"/>
    <path class="cls-1" d="M98.91,136.74h0c1.1,0,2,.9,2,2v16c0,1.1-.9,2-2,2h0c-1.1,0-2-.9-2-2v-16c0-1.1.9-2,2-2Z"/>
    <path class="cls-1" d="M94.91,158.74h8c1.1,0,2,.9,2,2h0c0,1.1-.9,2-2,2h-8c-1.1,0-2-.9-2-2h0c0-1.1.9-2,2-2Z"/>
  </g>
  <g>
    <path class="cls-1" d="M28.91,33.04h0c1.1,0,2,.9,2,2v68c0,1.1-.9,2-2,2h0c-1.1,0-2-.9-2-2V35.04c0-1.1.9-2,2-2Z"/>
    <path class="cls-1" d="M40.91,45.04h0c1.1,0,2,.9,2,2v44c0,1.1-.9,2-2,2h0c-1.1,0-2-.9-2-2v-44c0-1.1.9-2,2-2Z"/>
    <path class="cls-1" d="M52.91,39.04h0c1.1,0,2,.9,2,2v56c0,1.1-.9,2-2,2h0c-1.1,0-2-.9-2-2v-56c0-1.1.9-2,2-2Z"/>
    <path class="cls-1" d="M64.91,51.04h0c1.1,0,2,.9,2,2v32c0,1.1-.9,2-2,2h0c-1.1,0-2-.9-2-2v-32c0-1.1.9-2,2-2Z"/>
    <path class="cls-1" d="M76.91,33.04h0c1.1,0,2,.9,2,2v68c0,1.1-.9,2-2,2h0c-1.1,0-2-.9-2-2V35.04c0-1.1.9-2,2-2Z"/>
    <path class="cls-1" d="M88.91,57.04h0c1.1,0,2,.9,2,2v20c0,1.1-.9,2-2,2h0c-1.1,0-2-.9-2-2v-20c0-1.1.9-2,2-2Z"/>
    <path class="cls-1" d="M100.91,45.04h0c1.1,0,2,.9,2,2v44c0,1.1-.9,2-2,2h0c-1.1,0-2-.9-2-2v-44c0-1.1.9-2,2-2Z"/>
    <path class="cls-1" d="M112.91,39.04h0c1.1,0,2,.9,2,2v56c0,1.1-.9,2-2,2h0c-1.1,0-2-.9-2-2v-56c0-1.1.9-2,2-2Z"/>
    <path class="cls-1" d="M124.91,51.04h0c1.1,0,2,.9,2,2v32c0,1.1-.9,2-2,2h0c-1.1,0-2-.9-2-2v-32c0-1.1.9-2,2-2Z"/>
    <path class="cls-4" d="M135.09,53.04c6.67,10.67,6.67,21.33,0,32"/>
    <path class="cls-4" d="M145.09,43.04c10,17.33,10,34.67,0,52"/>
    <path class="cls-4" d="M155.09,33.04c13.33,24,13.33,48,0,72"/>
  </g>
</svg>